# xmcd
#
# Track frame offsets:
#	150
#	20502
#	34764
#	50597
#	67245
#	81919
#	96410
#	114437
#	132839
#	145275
#	160656
#
# Disc length: 2326 seconds
#
# Revision: 0
# Processed by: cddbd v1.5.1PL2 Copyright (c) Steve Scherf et al.
# Submitted via: dBpowerAMP V4.0
#
DISCID=9909140b
DTITLE=Tim O'Reagan - Tim O'Reagan
DYEAR=2006
DGENRE=Country
TTITLE0=These Things
TTITLE1=Black and Blue
TTITLE2=River Bends
TTITLE3=Highway Flowers
TTITLE4=Anybody's Only
TTITLE5=That's The Game
TTITLE6=Ivy
TTITLE7=Girl/World
TTITLE8=Ocaso Rosa
TTITLE9=Just Like You
TTITLE10=Plaything
EXTD=
EXTT0=
EXTT1=
EXTT2=
EXTT3=
EXTT4=
EXTT5=
EXTT6=
EXTT7=
EXTT8=
EXTT9=
EXTT10=
PLAYORDER=
